<svg width="132.27mm" height="211.67mm" version="1.1" viewBox="0 0 132.27 211.67" xmlns="http://www.w3.org/2000/svg">
 <path d="m79.966 210.74c-0.0145-0.50932 0.0938-0.92604 0.24045-0.92604 0.14668 0 0.19511 0.20836 0.10761 0.46302s0.19603 0.0525 0.63006-0.44931c0.43403-0.50179 0.68162-0.9788 0.55021-1.06-0.13142-0.0812-0.0784-0.36719 0.11778-0.6355 0.1962-0.26832 0.45899-0.42464 0.58398-0.34739 0.125 0.0772 0.24559-0.10274 0.26798-0.39999 0.0224-0.29724 0.24415-0.76524 0.4928-1.04 0.24866-0.27475 0.3915-0.49956 0.31743-0.49956-0.26488 0-1.5348 1.3031-1.5348 1.5749 0 0.15247-0.17859 0.27722-0.39687 0.27722-0.63395 0-0.46548-0.49212 0.52687-1.539 0.50806-0.53599 0.92478-1.1234 0.92604-1.3053 1e-3 -0.1819 0.1341-0.33072 0.29519-0.33072s0.22436-0.1786 0.14059-0.39688c-0.10359-0.26995 0.0143-0.39687 0.36857-0.39687 0.34447 0 0.52086-0.17921 0.52086-0.52917 0-0.29104 0.17486-0.52917 0.38858-0.52917 0.24023 0 0.32921-0.15468 0.23309-0.40517-0.1353-0.35259 1.058-1.7102 1.5041-1.7112 0.0778-1.8e-4 0.36874-0.38728 0.6466-0.86022 0.27787-0.47294 1.0774-1.428 1.7768-2.1223s1.2716-1.4144 1.2716-1.6002c0-0.18577 0.83344-1.1862 1.8521-2.2232 1.0186-1.037 1.8521-2.0136 1.8521-2.1702 0-0.15661 0.11907-0.28474 0.26459-0.28474s0.26458-0.1786 0.26458-0.39688 0.17633-0.39687 0.39184-0.39687c0.2155 0 0.46496-0.29139 0.55435-0.64754 0.0894-0.35614 0.44884-0.83513 0.79879-1.0644 0.34995-0.22929 0.63627-0.63839 0.63627-0.90911 0-0.27071 0.22792-0.55181 0.5065-0.62466 0.27857-0.0728 0.70567-0.51761 0.94911-0.98836 0.24343-0.47076 0.78941-1.1949 1.2133-1.6093 0.42388-0.41436 0.77068-0.85977 0.77068-0.98981s0.29052-0.45462 0.64561-0.72128 0.58619-0.58099 0.51355-0.69852c-0.0726-0.11752 5e-3 -0.21368 0.17187-0.21368 0.35741 0 1.2933-1.0612 1.306-1.4809 0.0124-0.40973 0.9374-1.4296 1.2966-1.4296 0.16483 0 0.29969-0.18233 0.29969-0.40518s0.17859-0.47371 0.39687-0.55747c0.21829-0.0838 0.39688-0.31815 0.39688-0.52086s0.18154-0.36857 0.40342-0.36857c0.22189 0 0.5178-0.30081 0.65758-0.66847 0.2701-0.71042 0.63139-1.2103 1.3947-1.9296 0.25923-0.2443 0.70218-0.92053 0.98433-1.5027s0.98887-1.5348 1.5705-2.1169 1.0614-1.198 1.0662-1.3688c5e-3 -0.17074 0.29039-0.64699 0.63466-1.0583 0.34428-0.41135 0.93733-1.3646 1.3179-2.1182s0.81808-1.4483 0.97226-1.5436c0.48609-0.30042 2.447-3.5591 3.8831-6.4531 0.39017-0.78624 0.98449-1.7264 1.3207-2.0892 0.33623-0.3628 0.60954-0.85061 0.60735-1.084-2e-3 -0.23341 0.43192-1.3174 0.96468-2.4088 1.2603-2.5818 1.3236-2.7364 1.9497-4.7625 0.29232-0.94589 0.64466-1.9579 0.78298-2.249 0.97529-2.052 1.8436-7.203 1.851-10.98 0.0163-8.3551-4.6005-16.502-12.82-22.622-1.1642-0.86683-2.4981-1.8975-2.9644-2.2904-0.46623-0.39291-1.7164-1.2187-2.7781-1.835-2.4754-1.437-2.7772-1.8688-1.9115-2.7345 0.32442-0.32443 1.0175-0.41578 3.1547-0.41578 2.4662 0 2.8134 0.0607 3.4868 0.60939 0.41134 0.33517 1.8059 1.313 3.099 2.1731 1.2931 0.86002 2.6631 1.8756 3.0443 2.2569 0.38126 0.38126 1.4068 1.2675 2.2791 1.9695 2.2588 1.8179 6.3789 6.1626 7.0278 7.411 0.30257 0.58209 0.74273 1.2072 0.97812 1.3891s0.32724 0.33073 0.20412 0.33073c-0.12313 0-0.0361 0.20836 0.19349 0.46302 0.57967 0.64307 2.1885 4.1907 2.6815 5.913 1.139 3.979 1.5339 9.4172 0.92893 12.79-0.68123 3.7982-1.8863 8.4119-2.8048 10.739-0.54426 1.3786-1.0633 2.5661-1.1534 2.6389-0.0901 0.0728-0.97307 1.7626-1.9621 3.7552s-1.969 3.6884-2.1776 3.7684c-0.20861 0.08-0.30518 0.26545-0.21461 0.412 0.0906 0.14655 0.0657 0.26645-0.0554 0.26645-0.12102 0-0.45048 0.44649-0.73213 0.99219s-0.75521 1.3469-1.0524 1.7804c-0.79174 1.1552-1.1239 1.7417-1.614 2.8498-0.24138 0.5457-0.53332 0.99219-0.64875 0.99219-0.25595 0-2.2182 2.6608-3.3045 4.4809-0.43656 0.73145-0.86935 1.3322-0.96175 1.3349-0.0924 3e-3 -0.98354 1.1045-1.9803 2.4484s-1.9928 2.6385-2.2133 2.8769c-0.2205 0.23847-0.66014 0.77607-0.97696 1.1947-0.31682 0.4186-0.79953 0.99922-1.0727 1.2903s-1.0855 1.2524-1.8052 2.1363c-2.209 2.7131-4.5582 5.4407-6.5197 7.5701-1.0303 1.1184-2.0652 2.3106-2.2998 2.6493s-1.0814 1.2832-1.8818 2.0988c-1.4295 1.4567-4.8908 5.1104-6.5124 6.8743-1.4608 1.589-5.6047 5.5264-5.8162 5.5264-0.11278 0-0.7485 0.45704-1.4127 1.0156-1.2275 1.0323-2.1785 1.6302-2.593 1.6302-0.12624 0-0.24135-0.41672-0.25578-0.92605zm-30.406-6.888c-0.45468-0.19937-0.89443-0.53906-0.97725-0.75486-0.0828-0.2158-0.40978-0.53109-0.7266-0.70065-0.3935-0.2106-0.51905-0.21608-0.39621-0.0173 0.0989 0.16003 0.0835 0.28775-0.0342 0.28382-0.32278-0.0108-2.1984-1.8136-2.1984-2.1131 0-0.14356-0.11906-0.26102-0.26458-0.26102s-0.26459-0.1099-0.26459-0.24423-0.32742-0.59389-0.7276-1.0212c-1.2981-1.3863-2.5739-2.9779-2.8267-3.5265-0.16321-0.3542-0.41817-0.49125-0.75165-0.40404-0.42064 0.11-0.47815 0.0263-0.34539-0.50268 0.12893-0.5137 0.0114-0.71113-0.61667-1.0359-0.59459-0.30748-0.80432-0.32488-0.89727-0.0745-0.0889 0.23959-0.24404 0.21001-0.58122-0.11083-0.45167-0.4298-0.35746-1.0176 0.16311-1.0176 0.14552 0 0.17849 0.1393 0.0733 0.30955-0.13043 0.21104-0.0443 0.25314 0.27061 0.13229 0.25405-0.0975 0.57975-0.17726 0.72376-0.17726s0.0833-0.17859-0.13503-0.39687c-0.21828-0.21828-0.58398-0.39688-0.81265-0.39688-0.49548 0-0.55448-0.42909-0.0851-0.61852 0.25905-0.10452 0.25725-0.13798-8e-3 -0.15434-0.18647-0.0115-0.40469 0.15019-0.48492 0.35928-0.26081 0.67966-0.92201 0.10861-1.6309-1.4086-0.38169-0.81684-1.01-1.9019-1.3962-2.4112-0.67172-0.88588-2.0387-3.9305-3.0292-6.7469-0.83801-2.3828-1.0487-2.7781-1.4804-2.7781-0.24829 0-0.52515-0.33978-0.66302-0.81368-0.13019-0.44753-0.32088-0.77495-0.42376-0.72761-0.10287 0.0473-0.37106-0.15204-0.59596-0.44309-0.3276-0.42393-0.37685-0.43709-0.24766-0.0661 0.24646 0.70772-0.11287 0.55693-1.1034-0.46302-0.49462-0.50933-1.0403-0.92604-1.2127-0.92604-0.17235 0-0.2488-0.0646-0.16989-0.14348 0.0789-0.0789-0.25736-0.58492-0.74727-1.1245-1.206-1.3282-1.4829-1.6865-2.0011-2.5888-0.24426-0.42538-0.68416-0.8106-0.97756-0.85605-0.33901-0.0525-0.48024-0.22127-0.38748-0.46302 0.0803-0.20921 0.0142-0.38039-0.14692-0.38039-0.16109 0-0.29289 0.23813-0.29289 0.52917 0 0.29398-0.17639 0.52917-0.39687 0.52917-0.21828 0-0.39688-0.17246-0.39688-0.38325 0-0.21078-0.29765-0.70441-0.66146-1.097-0.3638-0.39255-0.66145-0.8712-0.66145-1.0637 0-0.20235-0.16738-0.2857-0.39688-0.19764-0.21828 0.0838-0.39687 0.0205-0.39687-0.14059s0.12581-0.29289 0.27958-0.29289c0.15671 0 0.0986-0.25844-0.13229-0.58804-0.22653-0.32342-0.41188-0.86294-0.41188-1.1989s-0.17859-0.67942-0.39687-0.76318c-0.21828-0.0838-0.39688-0.42431-0.39688-0.75677 0-0.4241-0.19736-0.654-0.66146-0.77048-0.48836-0.12257-0.66145-0.34187-0.66145-0.83805 0-0.38065-0.11472-0.60113-0.26459-0.50851-0.14552 0.0899-0.26637-0.0519-0.26857-0.31511-4e-3 -0.51974-0.53268-2.1293-0.87366-2.6614-0.11655-0.18191-0.13343-0.45772-0.0375-0.61292 0.0959-0.1552-0.0355-0.43564-0.29196-0.6232-0.28918-0.21145-0.40092-0.51154-0.29411-0.78989 0.0947-0.24688 0.068-0.38447-0.0593-0.30575-0.45295 0.27993-0.87625-0.64513-0.77604-1.6959 0.0557-0.58358-6e-3 -1.0969-0.13759-1.1406-0.13132-0.0438-0.29826-0.7294-0.37097-1.5236-0.0727-0.79421-0.23665-1.5758-0.36432-1.7369-0.25832-0.32596 0.1549-5.0288 0.56862-6.4713 0.14278-0.49785 0.2596-1.3882 0.2596-1.9785s0.10991-1.1864 0.24425-1.3247c0.13433-0.13824 0.36398-0.84667 0.51032-1.5743 0.36333-1.8065 0.8316-3.5968 1.1072-4.2333 0.12604-0.29105 0.52585-1.4073 0.88847-2.4805s0.90527-2.2132 1.2059-2.5332 0.46892-0.65946 0.374-0.75438c-0.0949-0.0949 0.023-0.24766 0.26216-0.33941 0.23911-0.0918 0.43474-0.3343 0.43474-0.53899 0-0.41501 0.4872-1.3455 0.99219-1.895 0.1819-0.19792 0.33073-0.47592 0.33073-0.61777 0-0.51851 1.9145-4.3534 2.4941-4.996 0.32818-0.36381 0.84633-1.0802 1.1515-1.592 0.30512-0.5118 0.85985-1.2172 1.2327-1.5675 0.37288-0.35031 0.67797-0.72564 0.67797-0.83408 0-0.45679 4.2249-4.4793 5.6442-5.3739 1.3546-0.85377 1.8355-0.99961 3.9349-1.1933 1.3154-0.12138 2.6153-0.16222 2.8886-0.0907 0.93763 0.2452 0.53947 1.0778-1.0245 2.1424-1.624 1.1055-6.4825 6.1285-7.1243 7.3655-0.35536 0.68495-1.3161 2.0338-2.1338 2.9957-0.18555 0.21828-0.32622 0.50263-0.3126 0.63188 0.0136 0.12925-0.0782 0.30784-0.20412 0.39687-0.2531 0.17901-2.4622 3.6816-2.4622 3.904 0 0.24106-1.7105 3.6592-1.9043 3.8056-0.10149 0.0766-0.61557 1.2672-1.1424 2.6458-1.6871 4.4149-2.5159 8.834-2.5294 13.487-0.0177 6.1036 1.1022 10.269 4.3525 16.19 2.0151 3.6709 3.2239 5.6769 3.7257 6.1825 0.88932 0.89622 1.9072 2.326 2.1079 2.9609 0.32543 1.0295 0.62003 0.64663 0.40544-0.52687-0.11287-0.61721-0.14938-1.2125-0.0811-1.3229 0.0682-0.1104-9e-3 -0.20073-0.17176-0.20073-0.1627 0-0.22731-0.11084-0.14359-0.2463 0.0837-0.13547 0.0312-0.32109-0.11668-0.41249-0.14789-0.0914-0.2689-0.58371-0.2689-1.094s-0.12649-1.1642-0.2811-1.4531c-0.15461-0.28888-0.35301-1.3824-0.44088-2.43-0.0879-1.0476-0.20943-1.7559-0.27011-1.574-0.2244 0.67263-0.59541 0.30168-0.59541-0.59531 0-0.50932-0.12818-0.92604-0.28485-0.92604s-0.25925-0.38695-0.22795-0.8599c0.0313-0.47294-9e-3 -1.0385-0.09-1.2568-0.27921-0.75449-0.4541-2.6024-0.25675-2.7128 0.10893-0.061 0.0492-0.0746-0.13267-0.0302-0.1819 0.0443-0.33073-0.0942-0.33073-0.30795 0-0.21371 0.13364-0.38857 0.29698-0.38857 0.1965 0 0.21114-0.1119 0.0433-0.33073-0.39995-0.52138-0.41658-2.6322-0.0228-2.8866 0.28085-0.18146 0.27904-0.26411-0.01-0.45055-0.34686-0.22384-0.34824-0.4942-0.0401-7.8415 0.0183-0.43656 0.16094-1.6272 0.31697-2.6458s0.30513-2.0307 0.33133-2.249 0.12065-0.57547 0.20987-0.79375c0.0892-0.21828 0.3496-1.2303 0.57863-2.249 0.52159-2.3198 3.1567-9.8881 3.5467-10.186 0.25862-0.19783 0.98525-1.4886 2.0657-3.6695 0.53127-1.0723 1.3645-2.3483 1.8517-2.8354s0.88575-0.96307 0.88575-1.0576c0-0.25166 3.0929-3.8011 4.2052-4.826 0.52478-0.48351 1.8936-1.5972 3.0418-2.4748l2.0877-1.5957 2.6258 2e-3c2.8651 2e-3 3.6499 0.33099 3.6499 1.5297 0 0.46845-0.30852 0.7423-1.3984 1.2413-0.76914 0.35212-1.9424 1.1645-2.6072 1.8053-0.66482 0.64081-1.9405 1.7972-2.8349 2.5698-0.89438 0.77256-1.6262 1.5299-1.6262 1.6831 0 0.15312-0.47625 0.84724-1.0583 1.5425-0.58209 0.69524-1.0583 1.3836-1.0583 1.5298s-0.17296 0.33207-0.38437 0.4132c-0.2114 0.0811-0.61455 0.59987-0.89589 1.1528-0.28134 0.5529-0.97157 1.9037-1.5339 3.0018-3.4648 6.7665-4.7147 10.982-5.4091 18.244-0.38837 4.0612-0.1646 13.605 0.42494 18.124 0.5312 4.0719 2.1546 11.348 2.801 12.554 0.27469 0.51252 0.49944 1.0723 0.49944 1.2439 0 1.7086 6.2696 14.559 8.1189 16.64 0.26405 0.29722 0.66659 0.86888 0.89454 1.2704 0.22795 0.40146 1.1209 1.7024 1.9844 2.8909 0.86346 1.1885 1.5424 2.2471 1.5088 2.3525-0.0336 0.10533 0.2343 0.42385 0.59531 0.70782 0.36102 0.28397 0.65639 0.58711 0.65639 0.67365 0 0.0865 0.19387 0.38375 0.43082 0.66049 0.43097 0.50334 0.76685 2.4324 0.41643 2.3917-0.10219-0.0119-0.5578-0.18471-1.0125-0.38408zm-12.667-14.94c0.0899-0.14552 0.0374-0.26459-0.11667-0.26459-0.15411 0-0.2802 0.11907-0.2802 0.26459s0.0525 0.26458 0.11667 0.26458c0.0642 0 0.19027-0.11906 0.2802-0.26458zm-4.5535-10.583c-0.0761-0.29104-0.18403-0.52916-0.23982-0.52916-0.0558 0-0.10143 0.23812-0.10143 0.52916s0.10792 0.52917 0.23981 0.52917c0.1319 0 0.17755-0.23813 0.10144-0.52917zm-5.4522-19.1c-0.0845-0.21107-0.14715-0.14837-0.15985 0.15985-0.0115 0.27892 0.051 0.43519 0.13897 0.34727 0.0879-0.0879 0.0973-0.31612 0.0209-0.50712zm49.561 43.284c0-0.0867 0.19559-0.53318 0.43465-0.99219 0.84944-1.631 0.89618-1.7606 0.63485-1.7606-0.36305 0 0.75109-1.8764 1.4924-2.5135 0.75484-0.64871 1.895-2.7529 1.191-2.1979-0.88313 0.69612-1.3067 1.1526-1.6097 1.7349-0.17038 0.32742-0.48418 0.59531-0.69734 0.59531-0.53876 0-0.48369-0.36016 0.1416-0.92604 0.29104-0.26339 0.52916-0.62629 0.52916-0.80645 0-0.18015 0.18614-0.39899 0.41365-0.48629 0.2275-0.0873 0.33954-0.27863 0.24897-0.42518-0.0906-0.14655-0.0386-0.26645 0.11552-0.26645 0.15411 0 0.2802-0.29766 0.2802-0.66146s0.12609-0.66146 0.2802-0.66146c0.1541 0 0.2186-0.0997 0.14332-0.22146-0.21131-0.3419 0.63391-1.3978 0.95838-1.1973 0.16783 0.10372 0.2116 0.055 0.10522-0.11711-0.2047-0.33121 0.2061-1.1253 1.0926-2.1121 0.32743-0.36446 0.59532-0.83454 0.59532-1.0446 0-0.43685 1.0267-1.3709 1.5214-1.384 0.30201-8e-3 0.43137-0.41042 0.40354-1.2552-6e-3 -0.1762 0.12144-0.29526 0.28277-0.26458 0.16132 0.0307 0.336-0.22591 0.38816-0.57018 0.0522-0.34427 0.32288-0.68558 0.60159-0.75846 0.27872-0.0729 0.50675-0.3605 0.50675-0.63913 0-0.27864 0.1786-0.57515 0.39688-0.65891 0.21828-0.0838 0.39687-0.31932 0.39687-0.52345 0-0.20414 0.23813-0.57505 0.52917-0.82425 0.29104-0.24919 0.52917-0.58609 0.52917-0.74864 0-0.16256 0.41672-0.67477 0.92604-1.1382 0.50932-0.46348 0.92604-0.94627 0.92604-1.0729s0.35719-0.61256 0.79375-1.0799 0.79375-0.99719 0.79375-1.1774c0-0.44941 1.1331-1.733 1.5298-1.733 0.17727 0 0.3223-0.10464 0.3223-0.23253 0-0.34248 1.6262-2.9636 2.3445-3.7788 0.34116-0.38719 0.57829-0.76335 0.52697-0.83593-0.0513-0.0726 0.23524-0.39039 0.63681-0.70627 0.40156-0.31587 0.67502-0.66347 0.60768-0.77243-0.0673-0.10897 0.21739-0.6104 0.63275-1.1143 0.41535-0.5039 1.196-1.7447 1.7348-2.7573 0.53877-1.0126 1.1412-1.9698 1.3387-2.1272s0.48464-0.5741 0.63804-0.92605c0.1534-0.35194 0.50657-0.99708 0.78481-1.4336 0.27825-0.43656 0.5146-0.94494 0.52524-1.1297 0.0106-0.18479 0.29755-0.7801 0.63758-1.3229 0.34002-0.54282 0.8392-1.5822 1.1093-2.3098 0.27008-0.72761 0.75961-1.7573 1.0878-2.2881 0.90557-1.4646 2.1284-5.5712 2.6278-8.8244 0.68626-4.4714 0.14366-9.9784-1.3295-13.494-0.75494-1.8015-1.8549-3.9644-2.0631-4.057-0.10914-0.0485-0.19844-0.1848-0.19844-0.30287 0-0.41581-3.0615-4.6853-4.6302-6.4571-0.87312-0.98619-2.4209-2.4419-3.4396-3.2349-1.0186-0.79302-2.209-1.7394-2.6453-2.103-0.43626-0.36362-1.2346-0.77997-1.774-0.92523-0.97489-0.26251-1.7984-0.86606-1.7984-1.318 0-0.51199 1.1225-0.78403 3.2238-0.78125 3.2393 4e-3 4.0448 0.21181 6.0443 1.557 2.081 1.4001 6.3265 5.1356 6.9476 6.113 0.48239 0.75912 1.293 1.8034 2.4509 3.1573 0.82446 0.96403 2.6566 3.8544 3.1977 5.0448 0.16539 0.36381 0.74249 1.614 1.2824 2.7781 1.0142 2.1868 1.8123 5.3413 2.1083 8.3344 0.29323 2.9643-0.61215 10.096-1.4778 11.641-0.12266 0.21887-0.71589 1.6481-1.3183 3.1761-1.3255 3.3623-2.4861 5.7114-3.8607 7.8147-0.56724 0.8679-1.5523 2.5008-2.1891 3.6285-0.63675 1.1278-1.2626 2.0505-1.3907 2.0505s-0.15943 0.11907-0.0695 0.26459c0.0899 0.14552 0.0345 0.26458-0.12322 0.26458s-0.40288 0.26789-0.54482 0.59531c-0.31819 0.734-2.7628 4.1748-4.8882 6.8802-1.6146 2.0552-1.8669 2.3842-5.2243 6.812-1.0483 1.3824-2.121 2.7517-2.3838 3.0427s-1.0751 1.3031-1.805 2.249-1.5001 1.9295-1.7116 2.1858c-0.21153 0.25632-0.38461 0.53648-0.38461 0.62258s-0.50601 0.71962-1.1245 1.4078c-0.61846 0.68821-1.4778 1.7773-1.9096 2.4201s-1.2058 1.6515-1.7198 2.2414c-2.1026 2.4129-2.3902 2.7679-2.3982 2.96-0.0138 0.3306-1.2675 1.6559-1.5664 1.6559-0.15251 0-0.27728 0.11906-0.27728 0.26458 0 0.14553-0.17441 0.26459-0.38757 0.26459s-0.515 0.23812-0.67076 0.52916c-0.15576 0.29105-0.5044 0.52917-0.77475 0.52917-0.27036 0-0.56009 0.1786-0.64385 0.39688-0.14364 0.3743-0.96265 0.57787-0.96265 0.23926zm-4.2333-6.7066c0-0.13727 0.23253-0.41245 0.51673-0.61151 0.66339-0.46466 1.1429-1.7261 0.94928-2.4974-0.10662-0.42482 5e-3 -0.69856 0.38221-0.93387 0.29317-0.18309 0.53303-0.48284 0.53303-0.66612s0.12162-0.33323 0.27026-0.33323 0.41378-0.32742 0.5892-0.7276c0.17542-0.40019 0.53495-0.92441 0.79896-1.165 0.35415-0.32268 0.39044-0.46749 0.1384-0.55229-0.26856-0.0904-0.25674-0.2177 0.0553-0.59549 0.21827-0.2643 0.35914-0.70321 0.31303-0.97535-0.0461-0.27214 0.19037-0.93846 0.5255-1.4807s0.58122-1.0157 0.54686-1.052c-0.19639-0.20798-0.0139-0.58523 0.25591-0.52916 0.17511 0.0364 0.32394-0.14618 0.33073-0.40568 7e-3 -0.25951 0.19096-0.58511 0.40924-0.72356s0.30294-0.25355 0.18813-0.25578c-0.11481-2e-3 0.034-0.26462 0.33072-0.5831 0.29672-0.31849 0.53948-0.77652 0.53948-1.0178 0-0.24134 0.23592-0.7249 0.52426-1.0746 0.82541-1.001 0.90834-1.1212 1.3064-1.8926 0.20649-0.40018 0.47438-0.7276 0.59531-0.7276s0.21987-0.13045 0.21987-0.28989 0.23461-0.61936 0.52135-1.022c0.28675-0.40269 0.46179-0.79174 0.38898-0.86454-0.0728-0.0728 0.1649-0.47608 0.52822-0.89618 0.73698-0.85215 1.6747-2.4908 3.503-6.1216 0.67782-1.3461 1.3315-2.4474 1.4527-2.4474s0.22033-0.27781 0.22033-0.61736 0.0816-0.69896 0.18133-0.79869c0.0997-0.0997 0.32212-0.56606 0.4942-1.0363 1.2618-3.4479 1.9406-5.5731 2.217-6.9404 0.17651-0.87313 0.488-2.0638 0.69221-2.6458 0.73924-2.1071 1.1376-9.5023 0.66184-12.287-0.56551-3.3105-0.80787-4.312-2.0982-8.6701-1.5477-5.2273-2.8076-7.9803-5.5079-12.036-0.41673-0.62588-0.91003-1.4356-1.0962-1.7994s-0.9265-1.3163-1.6451-2.1167c-0.71859-0.80037-1.3067-1.5472-1.307-1.6596-2.5e-4 -0.11239-0.44695-0.70771-0.99265-1.3229-0.96742-1.0906-1.7755-2.306-1.6058-2.415 1.1196-0.71984 1.509-0.88062 1.7025-0.70291 0.12875 0.11828 1.1608 0.3485 2.2935 0.51162 2.4331 0.35038 2.9265 0.63557 4.4571 2.576 0.63605 0.8064 1.3792 1.7249 1.6514 2.041 0.9581 1.1127 2.5477 3.333 2.5477 3.5585 0 0.12545 0.47636 0.86656 1.0586 1.6469 0.99162 1.3291 2.6942 4.6031 3.646 7.0111 0.23008 0.58208 0.49749 1.1179 0.59424 1.1906 0.17662 0.13282 0.59439 1.4528 1.5492 4.8948 2.5648 9.2458 2.2802 19.028-0.81021 27.847-0.3187 0.90951-0.66359 1.6536-0.76643 1.6536-0.10283 0-0.26586 0.31434-0.36229 0.69854-0.23383 0.93164-3.2991 7.1069-3.8294 7.7145-0.23008 0.26365-0.56152 0.71099-0.73655 0.99409s-0.93368 1.5228-1.6859 2.755c-0.75221 1.2321-1.9039 2.8986-2.5593 3.7032-0.65543 0.80461-1.2546 1.642-1.3316 1.8608-0.13555 0.38546-1.6322 2.3423-2.4393 3.1894-0.21828 0.22909-1.2303 1.519-2.249 2.8664-1.0186 1.3475-2.5938 3.245-3.5002 4.2168s-1.6506 1.9157-1.6536 2.0976c-3e-3 0.1819-0.19675 0.33073-0.43046 0.33073-0.23372 0-0.6685 0.30963-0.96617 0.68806-0.29768 0.37844-1.0688 0.91422-1.7137 1.1906-1.3517 0.57941-1.3931 0.58694-1.3931 0.25299zm-33.715-1.2499c-0.1993-0.51936 0.20559-1.0191 0.61877-0.76376 0.41698 0.25771 0.35336 1.2049-0.0809 1.2049-0.20272 0-0.44474-0.1985-0.53784-0.44111zm36.89-6.3058c0-0.21828 0.10633-0.39688 0.23628-0.39688s0.30481 0.1786 0.38857 0.39688c0.0928 0.24175 5.3e-4 0.39687-0.23627 0.39687-0.21372 0-0.38858-0.17859-0.38858-0.39687zm-42.962-3.7144c-0.25531-0.66534-0.18-0.83702 0.13191-0.30065 0.15443 0.26557 0.22505 0.5386 0.15693 0.60672-0.0681 0.0681-0.1981-0.0696-0.28884-0.30607zm-7.1175-0.37383c-0.0859-0.32854-0.35988-0.54198-0.69566-0.54198-0.316 0-0.55394-0.17047-0.55394-0.39688 0-0.21828-0.20836-0.39785-0.46302-0.39905-0.25466-1e-3 -1.1059-0.60447-1.8917-1.3406-0.99475-0.93192-1.4896-1.2399-1.6292-1.014-0.256 0.41421-0.0517 0.95162 0.43245 1.1374 0.40125 0.15398 0.52901 0.95481 0.15232 0.95481-0.35792 0-1.3634-0.95797-1.3634-1.299 0-0.35482-0.22063-0.63142-1.7859-2.239-0.61846-0.63518-1.1245-1.2769-1.1245-1.426s-0.17859-0.33962-0.39687-0.42338c-0.21828-0.0838-0.39688-0.27476-0.39688-0.42444s-0.53578-0.99995-1.1906-1.8895c-0.65485-0.88955-1.1906-1.4852-1.1906-1.3237 0 0.16154-0.17859 0.2937-0.39687 0.2937-0.47657 0-0.53967-0.78237-0.0661-0.82013 0.1819-0.0145 0.0331-0.11434-0.33073-0.22186-0.3638-0.10752-0.62433-0.35586-0.57895-0.55188 0.16443-0.71026-0.20852-1.5669-0.61437-1.4112-0.48387 0.18568-0.54454-0.58594-0.0635-0.8069 0.1819-0.0836 0.0454-0.0799-0.30332 8e-3 -0.55284 0.13948-0.61446 0.0851-0.48112-0.42484 0.24572-0.93962-0.0394-1.3467-0.808-1.1538-0.54401 0.13654-0.64606 0.0884-0.51829-0.24457 0.092-0.23985-6e-3 -0.47799-0.23303-0.56504-0.5701-0.21878-1.2176-1.9483-1.037-2.7703 0.13273-0.60434 0.0401-0.74881-0.64646-1.0079-0.73124-0.27602-0.98116-0.79748-0.83273-1.7375 0.0172-0.10913-0.0877-0.19843-0.23325-0.19843-0.38083 0-0.32655-0.72465 0.0661-0.8831 0.24266-0.0979 0.23331-0.13902-0.0351-0.15434-0.50822-0.029-1.354-1.059-1.354-1.6489 0-0.26878-0.2261-0.71479-0.50245-0.99114-0.72067-0.72067-2.8691-7.1675-2.5569-7.6726 0.0775-0.12538-0.14756-0.77045-0.5001-1.4335-1.4585-2.7432-1.5985-10.626-0.27339-15.395 1.03-3.7069 2.4382-7.6511 2.921-8.1816 0.29883-0.32836 0.49726-0.73519 0.44097-0.90406-0.0563-0.16888 0.025-0.30705 0.18073-0.30705 0.1557 0 0.44545-0.38696 0.6439-0.8599 0.66394-1.5823 3.5323-5.0698 6.1425-7.4686 2.9669-2.7264 6.5951-5.4299 7.2873-5.4299 0.26 0 0.53649-0.10315 0.61441-0.22923 0.0779-0.12607 0.94815-0.21537 1.9338-0.19844 1.7497 0.0301 1.7942 0.0481 1.8759 0.7584 0.0461 0.40018-0.0341 0.7276-0.17808 0.7276-0.14399 0-0.59839 0.32743-1.0098 0.72761-0.41138 0.40018-1.3425 1.2038-2.0692 1.7859-1.2162 0.97415-4.7132 4.3842-6.105 5.9531-1.2496 1.4086-3.5179 5.4691-5.0222 8.99-2.9358 6.8716-2.8152 17.035 0.2841 23.951 0.32606 0.72761 0.68349 1.6206 0.79427 1.9844 0.11079 0.3638 0.52817 1.3758 0.92753 2.249 0.39936 0.87312 0.88441 2.0042 1.0779 2.5135 0.19349 0.50932 0.65328 1.4429 1.0218 2.0747 1.1714 2.0084 2.2336 3.8582 3.0512 5.3138 0.43657 0.7772 1.3371 2.1414 2.0012 3.0316 0.66408 0.89017 1.2752 1.7971 1.3581 2.0154 0.0829 0.21829 0.73017 1.1519 1.4384 2.0747 0.70825 0.92282 1.557 2.0539 1.8862 2.5135 1.238 1.7289 1.4977 2.0742 1.9648 2.6127 0.26374 0.30409 0.47952 0.71488 0.47952 0.91287 0 0.40976 0.49513 1.3426 1.0074 1.898 0.19027 0.20629 0.28331 0.53832 0.20675 0.73784-0.0766 0.19951-0.0156 0.36276 0.13547 0.36276 0.15108 0 0.23664 0.26667 0.19014 0.5926-0.11008 0.77157-0.89744 0.92699-1.0839 0.21396zm-5.7509-4.643c-0.0172-0.14552-0.21834-0.22587-0.44691-0.17856-0.3101 0.0642-0.3772-0.0607-0.26437-0.49219 0.16828-0.64352-0.79206-1.8256-1.3359-1.6444-0.19892 0.0663-0.0738 0.34713 0.33825 0.75918 0.35966 0.35966 0.65394 0.86681 0.65394 1.127 0 0.26018 0.0835 0.55653 0.18554 0.65858 0.26044 0.26044 0.90722 0.0896 0.86942-0.22963zm11.675 1.9182c-0.26242-0.78671-0.25336-0.81618 0.10641-0.34631 0.21628 0.28248 0.39324 0.66943 0.39324 0.8599 0 0.59001-0.20016 0.38427-0.49965-0.51359zm26.032-50.186c-0.29104-0.11869-1.184-0.42622-1.9844-0.68339-3.7857-1.2164-4.5-3.827-2.8588-10.448 0.16231-0.65484 0.38327-1.3097 0.49102-1.4552s0.51365-1.0385 0.90202-1.9844c1.268-3.0884 2.0348-4.4311 2.7046-4.7363 0.35914-0.16363 0.74021-0.24361 0.84683-0.17771 0.10661 0.0659 0.96089 0.18705 1.8984 0.26925 1.5871 0.13916 3.7037 0.81785 3.6775 1.1792-6e-3 0.087-0.30132 0.63451-0.65557 1.2166-2.5972 4.2676-3.8986 8.1766-3.9382 11.83-0.0214 1.9769 0.0675 2.4741 0.6251 3.495 0.35755 0.65463 0.59568 1.2407 0.52917 1.3023-0.28548 0.26457-1.7519 0.39095-2.2376 0.19285zm18.117-2.1422c-0.2583-0.2583-0.57084-0.37164-0.69453-0.25186-0.41109 0.39807-1.6801-0.0295-1.6801-0.56612 0-0.27407-0.0978-0.49832-0.2173-0.49832-0.11951 0-0.24049-0.62508-0.26883-1.3891-0.0284-0.76399-0.17232-2.8178-0.31995-4.5641-0.39277-4.6461-0.99256-7.2392-1.5891-6.8705-0.42266 0.26122-1.2442 2.2856-1.8206 4.4862-0.7705 2.9417-0.7229 5.2521 0.1521 7.3828 0.94685 2.3056 0.78855 2.6324-1.1608 2.396-0.83727-0.10154-1.7228-0.28875-1.9679-0.41603s-0.68554-0.23142-0.97878-0.23142c-0.69975 0-1.9763-1.3835-2.8319-3.0693-0.58976-1.1619-0.66957-1.6033-0.5741-3.175 0.12525-2.062 0.64587-4.0675 1.8261-7.0343 1.1358-2.8553 1.1406-2.858 4.2464-2.452 1.4107 0.1844 2.6734 0.40235 2.806 0.48431 0.13263 0.082 0.18598-0.13953 0.11856-0.49222-0.16881-0.88305 0.65848-1.0532 3.2816-0.67491 3.5381 0.51025 3.6246 0.58489 4.4554 3.8444 0.48618 1.9074 0.99988 8.2851 0.81735 10.148-0.27141 2.7696-2.1981 4.3454-3.5995 2.944zm-10.974-20.114c-4.8103-0.44351-10.388-2.0035-11.64-3.2555-0.19916-0.19916-1.4094-0.62477-2.6893-0.94579-2.5327-0.63522-3.0008-0.88948-3.0008-1.6302 0-0.69902 0.65837-0.9487 2.9104-1.1038 1.778-0.1224 2.3272-0.0298 5.28 0.89063 2.8416 0.88572 5.5516 1.9718 7.2179 2.8927 0.58798 0.32496 1.8735 0.32794 2.1996 5e-3 0.44024-0.43577 6.5445-3.3485 8.0566-3.8443 0.80036-0.26244 1.7156-0.59607 2.0339-0.74141 0.78988-0.36069 6.2311-0.37899 7.0015-0.0236 0.34202 0.15779 1.6934 0.61437 3.0031 1.0146 2.5852 0.79005 4.101 1.5716 4.101 2.1143 0 0.50929-1.012 0.68337-2.2977 0.39524-1.7242-0.38641-5.8596-0.39404-7.4919-0.0138-0.80036 0.18643-3.3785 1.2803-5.7292 2.4308-4.6747 2.288-4.4083 2.234-8.9552 1.8148zm-51.726-12.423c0-0.14552 0.11203-0.26458 0.24896-0.26458 0.13694 0 0.32256 0.11906 0.41249 0.26458 0.0899 0.14552-0.0221 0.26459-0.24896 0.26459-0.22687 0-0.41249-0.11907-0.41249-0.26459zm13.891-9.5423c-5.8253-0.16466-8.3911-0.65246-10.782-2.0498-1.4026-0.81977-3.2408-3.14-3.7076-4.6798-0.18262-0.60238-0.3219-2.5972-0.32329-4.6302-3e-3 -3.6918 0.33073-5.4659 1.2067-6.4238 0.23672-0.25885 0.83115-1.0287 1.321-1.7107l0.89055-1.2401-1.0496 0.62858c-0.57728 0.34572-1.1627 0.72859-1.301 0.85082-0.13825 0.12223-0.46968 0.22224-0.73652 0.22224-0.26685 0-0.83252 0.35533-1.2571 0.78963-0.48709 0.49828-1.1235 0.83323-1.7248 0.90782-0.60784 0.07539-1.3314 0.46012-1.9981 1.0625-1.1319 1.0226-1.3186 1.0927-1.7533 0.65796-0.20535-0.20535-0.44288-0.18852-0.84006 0.05952-0.41052 0.25637-0.63083 0.26876-0.85171 0.04787-0.35157-0.35157-0.0757-1.9378 0.33698-1.9378 0.15113 0 0.6858-0.36088 1.1882-0.80196 0.50236-0.44108 1.5605-1.1672 2.3515-1.6136 0.79095-0.44638 1.5267-0.9487 1.6351-1.1163 0.10835-0.16756 1.09-0.73991 2.1814-1.2719 4.8866-2.3818 5.9615-2.9335 6.0854-3.1233 0.14989-0.22953 3.4127-1.5263 8.0036-3.1811 1.7099-0.61629 3.1089-1.2266 3.1089-1.3563 0-0.12965 0.18597-0.23573 0.41326-0.23573s1.0471-0.29986 1.8218-0.66636c3.2077-1.5175 8.3025-2.5809 8.8203-1.8411 0.44772 0.63978 1.7668 1.2216 3.0456 1.3435 2.2312 0.21255 7.5949 1.2338 7.5949 1.4461 0 0.10753 0.86321 0.45501 1.9182 0.77218 2.2119 0.66494 5.8866 2.5815 7.1337 3.7205 0.79991 0.73061 1.0862 0.87786 1.3908 0.71532 0.29375-0.1568 3.3841 3.2038 3.832 4.1672 2.148 4.6195 2.3865 5.391 2.3117 7.4748-0.0274 0.76414 0.0488 1.3892 0.16954 1.3891 0.3002-5.29e-4 -0.0529 1.5834-0.51611 2.3148-0.20735 0.32742-0.3038 0.59531-0.21433 0.59531 0.0895 0-0.39125 0.53836-1.0683 1.1963-0.87047 0.84601-2.348 1.7394-5.0454 3.0508-3.3194 1.6138-4.2359 1.9357-7.0616 2.4804-3.5189 0.67829-8.9612 1.3064-15.021 1.7336-5.8463 0.41216-5.8601 0.41246-11.509 0.25278zm13.261-2.7728c2.1652-0.22488 4.294-0.5152 4.7306-0.64516s1.6272-0.36794 2.6458-0.52884c3.659-0.57794 8.5542-2.3851 9.8881-3.6503 0.26402-0.25043 0.84565-0.65229 1.2925-0.89302 0.44687-0.24073 1.0101-0.73929 1.2516-1.1079 0.58221-0.88856 1.1867-3.2129 1.1906-4.5781 3e-3 -1.2202-0.8006-3.9643-1.5781-5.3857-0.27862-0.50932-0.62155-1.1739-0.76207-1.4768s-0.72891-0.99934-1.3075-1.5476c-2.7377-2.5942-5.9551-4.3807-10.107-5.6122-2.208-0.65484-2.9316-0.74405-5.9531-0.73392l-3.4396 0.01154-3.4396 1.487c-5.3319 2.305-8.6488 4.0562-9.7565 5.1511-1.658 1.6387-3.5525 4.0327-4.1151 5.2001-1.2751 2.6455-1.369 8.0321-0.18522 10.618 0.5437 1.1876 0.89098 1.5443 2.317 2.3801 1.0907 0.63927 2.3267 1.1021 3.5337 1.3233 2.605 0.47747 9.1394 0.47207 13.794-0.0114zm52.091 2.0805c-2.0566-0.12381-10.87-1.3794-11.605-1.6534-0.31116-0.1159-1.1208-0.29221-1.7991-0.39179-0.67835-0.09958-1.7144-0.41346-2.3023-0.69752-0.58793-0.28405-1.1884-0.51646-1.3344-0.51646-0.57303 0-3.6446-1.6509-4.4783-2.407-2.4818-2.2507-2.603-7.0712-0.26065-10.361 2.3318-3.2747 7.5333-8.3537 9.6091-9.3829 1.2238-0.60672 3.5656-1.1955 6.7008-1.6847 1.7211-0.26853 2.7224-0.27814 4.578-0.04391 1.7617 0.22237 2.9978 0.22313 4.7862 0.0029 5.7765-0.71123 14.108 1.5819 18.496 5.0908 0.6369 0.50932 1.5553 1.3428 2.0409 1.8521 1.0023 1.0514 2.4244 3.6853 2.4244 4.4904 0 0.29519 0.11907 0.53671 0.26459 0.53671s0.26458 0.24663 0.26458 0.54807c0 0.30143 0.17859 0.72666 0.39688 0.94494 0.56555 0.56555 0.51053 2.5225-0.0928 3.3-0.26931 0.34705-0.43798 0.77982-0.37482 0.96172 0.0632 0.1819-0.0142 0.33073-0.1718 0.33073-0.15765 0-0.28664 0.16254-0.28664 0.36119 0 0.19866-0.23878 0.66476-0.53064 1.0358-0.37674 0.47896-0.43555 0.7063-0.20274 0.7839 0.60739 0.20247-1.1102 1.8807-3.3292 3.2528-4.4283 2.7383-9.0676 3.7722-16.84 3.7528-2.4011-6e-3 -5.08-0.05393-5.9531-0.1065zm7.61-2.6936c0.16556-0.16556 0.62168-0.30102 1.0136-0.30102 1.6329 0 6.8915-1.5711 8.7739-2.6213 2.3249-1.2971 5.4664-4.1922 5.0265-4.6321-0.0852-0.08522-0.0253-0.15494 0.13321-0.15494 0.86569 0 1.0478-3.9092 0.2693-5.7794-0.16095-0.38661-0.30656-0.76246-0.32359-0.83522-0.017-0.07276-0.33969-0.60854-0.71703-1.1906-0.90713-1.3993-2.3216-2.8233-3.8472-3.8729-1.258-0.86551-5.052-2.3348-6.0457-2.3413-0.29831-0.0019-0.68129-0.14244-0.85107-0.31222-0.41922-0.41922-4.814-0.44541-5.6396-0.03361-0.35192 0.17555-2.1281 0.61814-3.9471 0.98354-3.555 0.71412-6.792 1.5782-8.0698 2.1543-0.43656 0.1968-1.2262 0.43284-1.7548 0.52455-1.3065 0.22668-3.8209 1.7739-3.7306 2.2956 0.039 0.22523-0.10509 0.47702-0.3201 0.55953-0.21501 0.08251-0.77039 0.6616-1.2342 1.2869-0.46379 0.62527-0.76997 0.9285-0.6804 0.67384 0.29287-0.83269-0.061-0.48625-0.60811 0.59531-0.29444 0.58208-0.77347 1.5288-1.0645 2.1039-0.38106 0.75291-0.52917 1.5705-0.52917 2.921 0 3.1586 1.1464 4.6908 4.4186 5.9054 1.9383 0.71948 6.512 1.7698 7.7068 1.7698 0.40336 0 0.84649 0.11058 0.98474 0.24572 0.41402 0.40474 1.8774 0.50216 6.4194 0.42738 2.7822-0.04581 4.4229-0.17804 4.617-0.37208zm-16.738-18.824c0-0.11277 0.32742-0.29216 0.7276-0.39864 0.40018-0.10648 0.579-0.24829 0.39737-0.31515-0.28213-0.10385-2.1833 0.86241-2.1833 1.1096 0 0.04727 0.23813 0.02368 0.52917-0.05244 0.29104-0.07611 0.52917-0.23065 0.52917-0.34342zm-11.143-48.15c-0.23003-0.76776-0.17434-1.7597 0.26859-4.7845 0.30732-2.0988 0.55814-4.8432 0.55736-6.0987-1e-3 -1.5277 0.11006-2.3752 0.33563-2.5624 0.45765-0.37981 5.6276-0.3579 6.4734 0.02743l0.67413 0.30716-0.15683 3.667c-0.0863 2.0169-0.26746 3.8057-0.40267 3.9751s-0.43423 1.2605-0.66449 2.4247c-0.37608 1.9015-0.52646 2.2137-1.4792 3.0713-0.79246 0.71331-1.28 0.94741-1.9288 0.92604-0.47751-0.01573-0.95749-0.14766-1.0666-0.29318-0.13021-0.17362-0.26665-0.16464-0.39687 0.02613-0.10914 0.15989-0.58656 0.28888-1.0609 0.28663-0.76238-0.0036-0.89616-0.11649-1.1527-0.97264zm-8.3697-1.7643c-0.23666-0.0955-0.33073-0.96758-0.33073-3.0663 0-3.1633-0.45999-6.6113-0.79934-5.9915-0.11128 0.20324-0.35929 2.0773-0.55114 4.1646-0.43896 4.776-0.46259 4.8039-4.0771 4.8039h-2.4458l-0.33683-0.81318c-0.25562-0.61712-0.30008-2.2903-0.18439-6.9399 0.1861-7.4796-0.048-7.0656 3.9921-7.0595 1.4755 0.0022 2.853 0.11183 3.0611 0.24356 0.23608 0.1494 0.42268 0.8506 0.49596 1.8637 0.0991 1.3695 0.18494 1.5969 0.54757 1.4504 0.85762-0.34658 5.665-0.60552 6.2546-0.3369 0.48236 0.21978 0.64259 0.65076 0.94976 2.5547 0.47941 2.9715 0.48577 7.1536 0.0122 8.0377-0.21441 0.4003-0.75568 0.78639-1.3536 0.96553-0.98645 0.29555-4.5968 0.38058-5.2344 0.12328z" fill="#f06d00" stroke-width=".26458"/>
</svg>
